<svg xmlns="http://www.w3.org/2000/svg" width="892.636" height="699.152" viewBox="0 0 892.636 699.152">
  <g id="Group_8013" data-name="Group 8013" transform="translate(-721.612 -1876.166)">
    <path id="Path_10606" data-name="Path 10606" d="M15.792.576c7.44,0,12.768-4.656,12.768-11.232,0-6.816-5.328-10.512-11.088-10.512A10.033,10.033,0,0,0,9.6-17.52V-17.9a7.27,7.27,0,0,1,7.488-7.3,8.86,8.86,0,0,1,6.144,2.112l3.6-6.336A16.153,16.153,0,0,0,17.088-32.5c-9.7,0-15.84,6.336-15.84,16.56C1.248-6.768,5.664.576,15.792.576Zm-.528-7.3C11.376-6.72,9.84-9.408,9.6-12a7.426,7.426,0,0,1,5.376-2.16c2.5,0,5.232,1.1,5.232,3.792C20.208-8.592,18.336-6.72,15.264-6.72ZM56.832,0V-7.2H45.12c7.968-5.568,11.472-9.744,11.472-14.64,0-6.432-5.424-10.656-12.96-10.656a17.653,17.653,0,0,0-12.96,5.328l4.56,5.472a11.955,11.955,0,0,1,8.544-3.5c2.352,0,4.416,1.152,4.416,3.36,0,3.168-2.592,5.376-16.464,15.408V0Z" transform="translate(755.993 2573.73)" fill="#3c6295"/>
    <path id="Path_10607" data-name="Path 10607" d="M15.141.588c7.056,0,13.818-2.842,13.818-9.212,0-3.724-2.842-6.762-6.615-8.232,3.479-1.323,6.125-3.675,6.125-7.595,0-6.321-6.958-8.722-13.328-8.722-6.419,0-13.328,2.4-13.328,8.722,0,3.92,2.6,6.272,6.076,7.595-3.773,1.47-6.615,4.508-6.615,8.232C1.274-2.205,8.085.588,15.141.588Zm0-20.727c-2.009-.294-4.753-1.323-4.753-3.087,0-1.813,1.862-2.94,4.753-2.94,2.793,0,4.7,1.127,4.7,2.94C19.845-21.462,17.15-20.433,15.141-20.139Zm0,13.72c-3.136,0-5.292-1.274-5.292-3.185,0-2.009,3.185-3.185,5.292-3.43,2.058.245,5.292,1.421,5.292,3.43C20.433-7.693,18.179-6.419,15.141-6.419ZM55.468,0V-5.978h3.969v-7.4H55.468V-32.683H43.757L31.36-12.544v6.566H46.991V0ZM46.991-13.377H39.543l7.448-11.956Z" transform="translate(949.363 2574.73)" fill="#398093"/>
    <path id="Path_10608" data-name="Path 10608" d="M18.963,0V-32.683h-7.3L.245-21.413l4.8,5.047L10.535-21.9V0ZM49.686,0V-7.35H37.73C45.864-13.034,49.441-17.3,49.441-22.3c0-6.566-5.537-10.878-13.23-10.878a18.02,18.02,0,0,0-13.23,5.439l4.655,5.586a12.2,12.2,0,0,1,8.722-3.577c2.4,0,4.508,1.176,4.508,3.43,0,3.234-2.646,5.488-16.807,15.729V0ZM65.954.588c8.134,0,13.524-3.969,13.524-9.7,0-4.7-4.214-7.4-7.693-7.742,3.871-.637,7.154-3.528,7.154-7.35,0-5.39-4.655-8.967-12.985-8.967-6.027,0-10.339,2.2-13.083,5.292l4.067,5.292a12.1,12.1,0,0,1,8.134-3.136c3.136,0,5.488.931,5.488,2.989,0,1.715-1.911,2.548-5.292,2.548-1.225,0-3.773,0-4.41-.049v7.5c.49-.049,2.989-.049,4.41-.049,4.459,0,5.831.882,5.831,2.744,0,1.813-1.862,3.185-5.488,3.185a13.512,13.512,0,0,1-8.918-3.43L52.43-4.557C54.978-1.617,59.682.588,65.954.588Z" transform="translate(1122.81 2574.73)" fill="#3b9179"/>
    <path id="Path_10609" data-name="Path 10609" d="M18.576,0V-32.016H11.424L.24-20.976l4.7,4.944,5.376-5.424V0Zm15.36.528c9.7,0,15.84-6.384,15.84-16.56,0-9.216-4.416-16.512-14.544-16.512-7.44,0-12.768,4.656-12.768,11.232,0,6.816,5.376,10.56,11.136,10.56a10.042,10.042,0,0,0,7.824-3.7v.384a7.161,7.161,0,0,1-7.488,7.3A8.943,8.943,0,0,1,27.792-8.88L24.24-2.544A15.8,15.8,0,0,0,33.936.528Zm2.112-18.336c-2.448,0-5.184-1.1-5.184-3.792,0-1.776,1.824-3.648,4.848-3.648a5.343,5.343,0,0,1,5.712,5.28A7.238,7.238,0,0,1,36.048-17.808ZM69.648,0V-32.016H62.5L51.312-20.976l4.7,4.944,5.376-5.424V0Z" transform="translate(1317.353 2573.73)" fill="#3b8e50"/>
    <path id="Path_10610" data-name="Path 10610" d="M27.783,0V-7.35H15.827C23.961-13.034,27.538-17.3,27.538-22.3c0-6.566-5.537-10.878-13.23-10.878a18.02,18.02,0,0,0-13.23,5.439l4.655,5.586a12.2,12.2,0,0,1,8.722-3.577c2.4,0,4.508,1.176,4.508,3.43,0,3.234-2.646,5.488-16.807,15.729V0ZM57.526,0V-7.35H45.57C53.7-13.034,57.281-17.3,57.281-22.3c0-6.566-5.537-10.878-13.23-10.878a18.02,18.02,0,0,0-13.23,5.439l4.655,5.586A12.2,12.2,0,0,1,44.2-25.725c2.4,0,4.508,1.176,4.508,3.43,0,3.234-2.646,5.488-16.807,15.729V0ZM74.774.588c9.555,0,14.014-8.281,14.014-16.9S84.329-33.173,74.774-33.173,60.76-24.941,60.76-16.317,65.219.588,74.774.588Zm0-7.448c-3.92,0-5.488-3.675-5.488-9.457s1.568-9.408,5.488-9.408,5.488,3.626,5.488,9.408S78.694-6.86,74.774-6.86Z" transform="translate(1500.176 2574.73)" fill="#7d953d"/>
    <g id="Group_8012" data-name="Group 8012">
      <path id="Path_9688" data-name="Path 9688" d="M210.449,156.122l-68.925,34.465L72.6,156.122l68.925-34.463Z" transform="translate(837.242 2164.484)" fill="#408ea0"/>
      <path id="Path_9689" data-name="Path 9689" d="M72.6,289.2l68.923,34.47V169.423L72.6,134.95Z" transform="translate(837.243 2185.652)" fill="#398093"/>
      <path id="Path_9690" data-name="Path 9690" d="M99.182,169.423V323.67l68.925-34.47V134.95Z" transform="translate(879.583 2185.652)" fill="#2d6572"/>
      <path id="Path_9698" data-name="Path 9698" d="M141.522,168.037,72.6,134.951l67.917,35.215,1.006,153.5,1.006-153.5,67.919-35.215Z" transform="translate(837.243 2185.652)" fill="#4ea7b5"/>
      <g id="Group_8008" data-name="Group 8008">
        <path id="Path_9685" data-name="Path 9685" d="M0,177.393l68.923,34.463,68.928-34.463L68.923,142.925Z" transform="translate(721.612 2198.357)" fill="#436e9e"/>
        <path id="Path_9686" data-name="Path 9686" d="M0,255.324l68.925,34.47V190.687L0,156.219Z" transform="translate(721.612 2219.529)" fill="#3c6295"/>
        <path id="Path_9687" data-name="Path 9687" d="M26.584,190.687v99.107l68.925-34.47v-99.1Z" transform="translate(763.954 2219.529)" fill="#33577f"/>
        <path id="Path_9697" data-name="Path 9697" d="M68.923,189.3,0,156.219l67.922,35.209,1,98.363,1.006-98.363,67.919-35.209Z" transform="translate(721.613 2219.531)" fill="#5487b5"/>
        <g id="Group_7736" data-name="Group 7736" transform="translate(750.691 1876.354)">
          <circle id="Ellipse_248" data-name="Ellipse 248" cx="39.846" cy="39.846" r="39.846" fill="#5487b5" opacity="0.502"/>
          <circle id="Ellipse_249" data-name="Ellipse 249" cx="5.86" cy="5.86" r="5.86" transform="translate(33.986 492.288)" fill="#a5bfd6"/>
          <path id="Line_15" data-name="Line 15" d="M.5,458.3h-1V0h1Z" transform="translate(39.846 39.846)" fill="#a5bfd6"/>
          <path id="Path_10604" data-name="Path 10604" d="M13.041,0V-3.45H7.429c3.818-2.668,5.5-4.669,5.5-7.015,0-3.082-2.6-5.106-6.21-5.106a8.459,8.459,0,0,0-6.21,2.553L2.691-10.4a5.728,5.728,0,0,1,4.094-1.679c1.127,0,2.116.552,2.116,1.61,0,1.518-1.242,2.576-7.889,7.383V0Zm8.1.276c4.485,0,6.578-3.887,6.578-7.935s-2.093-7.912-6.578-7.912-6.578,3.864-6.578,7.912S16.652.276,21.137.276Zm0-3.5c-1.84,0-2.576-1.725-2.576-4.439s.736-4.416,2.576-4.416,2.576,1.7,2.576,4.416S22.977-3.22,21.137-3.22ZM37.214,0V-15.341H33.787l-5.359,5.29,2.254,2.369,2.576-2.6V0ZM45.7.276c3.312,0,6.486-1.334,6.486-4.324a4.386,4.386,0,0,0-3.105-3.864c1.633-.621,2.875-1.725,2.875-3.565,0-2.967-3.266-4.094-6.256-4.094-3.013,0-6.256,1.127-6.256,4.094,0,1.84,1.219,2.944,2.852,3.565a4.386,4.386,0,0,0-3.1,3.864C39.192-1.035,42.389.276,45.7.276Zm0-9.729c-.943-.138-2.231-.621-2.231-1.449,0-.851.874-1.38,2.231-1.38,1.311,0,2.208.529,2.208,1.38C47.909-10.074,46.644-9.591,45.7-9.453Zm0,6.44c-1.472,0-2.484-.6-2.484-1.495,0-.943,1.495-1.5,2.484-1.61.966.115,2.484.667,2.484,1.61C48.185-3.611,47.127-3.013,45.7-3.013Z" transform="translate(12.891 46.783)" fill="#f7f7f7"/>
        </g>
      </g>
      <circle id="Ellipse_248-2" data-name="Ellipse 248" cx="39.846" cy="39.846" r="39.846" transform="translate(938.815 1876.354)" fill="#4ea7b5" opacity="0.502"/>
      <circle id="Ellipse_249-2" data-name="Ellipse 249" cx="5.86" cy="5.86" r="5.86" transform="translate(972.802 2312.922)" fill="#a2cfd6"/>
      <path id="Line_15-2" data-name="Line 15" d="M.5,380.867h-1V0h1Z" transform="translate(978.661 1938.5)" fill="#a2cfd6"/>
      <path id="Path_10603" data-name="Path 10603" d="M13.041,0V-3.45H7.429c3.818-2.668,5.5-4.669,5.5-7.015,0-3.082-2.6-5.106-6.21-5.106a8.459,8.459,0,0,0-6.21,2.553L2.691-10.4a5.728,5.728,0,0,1,4.094-1.679c1.127,0,2.116.552,2.116,1.61,0,1.518-1.242,2.576-7.889,7.383V0Zm8.1.276c4.485,0,6.578-3.887,6.578-7.935s-2.093-7.912-6.578-7.912-6.578,3.864-6.578,7.912S16.652.276,21.137.276Zm0-3.5c-1.84,0-2.576-1.725-2.576-4.439s.736-4.416,2.576-4.416,2.576,1.7,2.576,4.416S22.977-3.22,21.137-3.22ZM37.214,0V-15.341H33.787l-5.359,5.29,2.254,2.369,2.576-2.6V0Zm7.36.253c4.646,0,7.59-3.059,7.59-7.935,0-4.416-2.116-7.912-6.969-7.912-3.565,0-6.118,2.231-6.118,5.382a5.021,5.021,0,0,0,5.336,5.06,4.812,4.812,0,0,0,3.749-1.771v.184a3.431,3.431,0,0,1-3.588,3.5A4.285,4.285,0,0,1,41.63-4.255l-1.7,3.036A7.571,7.571,0,0,0,44.574.253Zm1.012-8.786c-1.173,0-2.484-.529-2.484-1.817,0-.851.874-1.748,2.323-1.748a2.56,2.56,0,0,1,2.737,2.53A3.468,3.468,0,0,1,45.586-8.533Z" transform="translate(951.707 1923.137)" fill="#f7f7f7"/>
      <g id="Group_8011" data-name="Group 8011">
        <path id="Path_9691" data-name="Path 9691" d="M283.049,118.905l-68.928,34.463L145.2,118.905,214.121,84.44Z" transform="translate(952.871 2105.205)" fill="#45a084"/>
        <path id="Path_9692" data-name="Path 9692" d="M145.2,348.477l68.923,34.47V132.2L145.2,97.733Z" transform="translate(952.872 2126.377)" fill="#3b9179"/>
        <path id="Path_9693" data-name="Path 9693" d="M171.779,132.2V382.947l68.928-34.468V97.733Z" transform="translate(995.212 2126.377)" fill="#2f705c"/>
        <path id="Path_9699" data-name="Path 9699" d="M214.121,130.816,145.2,97.733l67.919,35.209,1.006,250,1.009-250,67.919-35.209Z" transform="translate(952.871 2126.377)" fill="#5aaf93"/>
        <circle id="Ellipse_248-3" data-name="Ellipse 248" cx="39.846" cy="39.846" r="39.846" transform="translate(1127.498 1876.291)" fill="#5aaf93" opacity="0.502"/>
        <circle id="Ellipse_249-3" data-name="Ellipse 249" cx="5.86" cy="5.86" r="5.86" transform="translate(1161.484 2215.65)" fill="#a8d3c5"/>
        <path id="Line_15-3" data-name="Line 15" d="M.5,279.6h-1V0h1Z" transform="translate(1167.344 1942.5)" fill="#a8d3c5"/>
        <path id="Path_10602" data-name="Path 10602" d="M13.041,0V-3.45H7.429c3.818-2.668,5.5-4.669,5.5-7.015,0-3.082-2.6-5.106-6.21-5.106a8.459,8.459,0,0,0-6.21,2.553L2.691-10.4a5.728,5.728,0,0,1,4.094-1.679c1.127,0,2.116.552,2.116,1.61,0,1.518-1.242,2.576-7.889,7.383V0Zm8.1.276c4.485,0,6.578-3.887,6.578-7.935s-2.093-7.912-6.578-7.912-6.578,3.864-6.578,7.912S16.652.276,21.137.276Zm0-3.5c-1.84,0-2.576-1.725-2.576-4.439s.736-4.416,2.576-4.416,2.576,1.7,2.576,4.416S22.977-3.22,21.137-3.22ZM41.354,0V-3.45H35.742c3.818-2.668,5.5-4.669,5.5-7.015,0-3.082-2.6-5.106-6.21-5.106a8.459,8.459,0,0,0-6.21,2.553L31-10.4A5.728,5.728,0,0,1,35.1-12.075c1.127,0,2.116.552,2.116,1.61,0,1.518-1.242,2.576-7.889,7.383V0Zm8.1.276c4.485,0,6.578-3.887,6.578-7.935s-2.093-7.912-6.578-7.912-6.578,3.864-6.578,7.912S44.965.276,49.45.276Zm0-3.5c-1.84,0-2.576-1.725-2.576-4.439s.736-4.416,2.576-4.416,2.576,1.7,2.576,4.416S51.29-3.22,49.45-3.22Z" transform="translate(1139.218 1923.074)" fill="#f7f7f7"/>
      </g>
      <g id="Group_8010" data-name="Group 8010">
        <path id="Path_9694" data-name="Path 9694" d="M355.647,71.053l-68.931,34.463L217.793,71.053l68.923-34.465Z" transform="translate(1068.5 2028.988)" fill="#459b57"/>
        <path id="Path_9695" data-name="Path 9695" d="M217.794,424.693l68.928,34.47V84.349L217.794,49.881Z" transform="translate(1068.5 2050.16)" fill="#3b8e50"/>
        <path id="Path_9696" data-name="Path 9696" d="M244.379,84.351V459.162L313.3,424.695V49.881Z" transform="translate(1110.844 2050.16)" fill="#2d683a"/>
        <path id="Path_9700" data-name="Path 9700" d="M286.722,82.962,217.794,49.881,285.713,85.09l1.009,374.072,1-374.072,67.922-35.209Z" transform="translate(1068.501 2050.16)" fill="#59ad66"/>
        <circle id="Ellipse_248-4" data-name="Ellipse 248" cx="39.846" cy="39.846" r="39.846" transform="translate(1315.009 1876.229)" fill="#59ad66" opacity="0.502"/>
        <circle id="Ellipse_249-4" data-name="Ellipse 249" cx="5.86" cy="5.86" r="5.86" transform="translate(1348.995 2092.596)" fill="#a7d2ae"/>
        <path id="Line_15-4" data-name="Line 15" d="M.5,156.54h-1V0h1Z" transform="translate(1354.855 1942.5)" fill="#a7d2ae"/>
        <path id="Path_10601" data-name="Path 10601" d="M13.041,0V-3.45H7.429c3.818-2.668,5.5-4.669,5.5-7.015,0-3.082-2.6-5.106-6.21-5.106a8.459,8.459,0,0,0-6.21,2.553L2.691-10.4a5.728,5.728,0,0,1,4.094-1.679c1.127,0,2.116.552,2.116,1.61,0,1.518-1.242,2.576-7.889,7.383V0Zm8.1.276c4.485,0,6.578-3.887,6.578-7.935s-2.093-7.912-6.578-7.912-6.578,3.864-6.578,7.912S16.652.276,21.137.276Zm0-3.5c-1.84,0-2.576-1.725-2.576-4.439s.736-4.416,2.576-4.416,2.576,1.7,2.576,4.416S22.977-3.22,21.137-3.22ZM41.354,0V-3.45H35.742c3.818-2.668,5.5-4.669,5.5-7.015,0-3.082-2.6-5.106-6.21-5.106a8.459,8.459,0,0,0-6.21,2.553L31-10.4A5.728,5.728,0,0,1,35.1-12.075c1.127,0,2.116.552,2.116,1.61,0,1.518-1.242,2.576-7.889,7.383V0Zm9.821,0V-15.341H47.748l-5.359,5.29,2.254,2.369,2.576-2.6V0Z" transform="translate(1327.9 1923.012)" fill="#f7f7f7"/>
      </g>
      <g id="Group_8009" data-name="Group 8009">
        <path id="Path_9703" data-name="Path 9703" d="M287.95,424.693l68.928,34.47V84.349L287.95,49.881Z" transform="translate(1188.446 2050.16)" fill="#7d953d"/>
        <path id="Path_9704" data-name="Path 9704" d="M314.536,84.351V459.162l68.923-34.468V49.881Z" transform="translate(1230.789 2050.16)" fill="#6d7f36"/>
        <path id="Path_9705" data-name="Path 9705" d="M356.879,82.962,287.951,49.881,355.87,85.09l1.009,374.072,1-374.072L425.8,49.881Z" transform="translate(1188.446 2050.16)" fill="#aabc5e"/>
        <path id="Path_9706" data-name="Path 9706" d="M356.871,0l-68.92,34.465,68.92,34.463L425.8,34.465Z" transform="translate(1188.446 1970.713)" fill="#8aa045"/>
        <path id="Path_9707" data-name="Path 9707" d="M356.878,422.576l-68.928-34.47V13.294l68.928,34.47Z" transform="translate(1188.445 1991.887)" fill="#7d953d"/>
        <path id="Path_9708" data-name="Path 9708" d="M314.536,47.766V422.577l68.923-34.47V13.293Z" transform="translate(1230.789 1991.885)" fill="#6d7f36"/>
        <path id="Path_9709" data-name="Path 9709" d="M356.879,46.377,287.951,13.293,355.87,48.5l1.009,374.075,1-374.075L425.8,13.293Z" transform="translate(1188.446 1991.885)" fill="#aabc5e"/>
        <circle id="Ellipse_248-5" data-name="Ellipse 248" cx="39.846" cy="39.846" r="39.846" transform="translate(1505.476 1876.166)" fill="#aabc5e" opacity="0.502"/>
        <circle id="Ellipse_249-5" data-name="Ellipse 249" cx="5.86" cy="5.86" r="5.86" transform="translate(1540.022 1997.668)" fill="#d0d9aa"/>
        <path id="Line_15-5" data-name="Line 15" d="M.5,92h-1V0h1Z" transform="translate(1545.881 1912.115)" fill="#d0d9aa"/>
        <path id="Path_10600" data-name="Path 10600" d="M13.041,0V-3.45H7.429c3.818-2.668,5.5-4.669,5.5-7.015,0-3.082-2.6-5.106-6.21-5.106a8.459,8.459,0,0,0-6.21,2.553L2.691-10.4a5.728,5.728,0,0,1,4.094-1.679c1.127,0,2.116.552,2.116,1.61,0,1.518-1.242,2.576-7.889,7.383V0Zm8.1.276c4.485,0,6.578-3.887,6.578-7.935s-2.093-7.912-6.578-7.912-6.578,3.864-6.578,7.912S16.652.276,21.137.276Zm0-3.5c-1.84,0-2.576-1.725-2.576-4.439s.736-4.416,2.576-4.416,2.576,1.7,2.576,4.416S22.977-3.22,21.137-3.22ZM41.354,0V-3.45H35.742c3.818-2.668,5.5-4.669,5.5-7.015,0-3.082-2.6-5.106-6.21-5.106a8.459,8.459,0,0,0-6.21,2.553L31-10.4A5.728,5.728,0,0,1,35.1-12.075c1.127,0,2.116.552,2.116,1.61,0,1.518-1.242,2.576-7.889,7.383V0ZM55.315,0V-3.45H49.7c3.818-2.668,5.5-4.669,5.5-7.015,0-3.082-2.6-5.106-6.21-5.106a8.459,8.459,0,0,0-6.21,2.553L44.965-10.4a5.728,5.728,0,0,1,4.094-1.679c1.127,0,2.116.552,2.116,1.61,0,1.518-1.242,2.576-7.889,7.383V0Z" transform="translate(1517.195 1922.949)" fill="#f7f7f7"/>
      </g>
    </g>
  </g>
</svg>
